<?xml version="1.0" encoding="UTF-8" standalone="no"?>
<svg xmlns="http://www.w3.org/2000/svg" viewBox="0 0 800 500">
  <defs>
    <linearGradient id="bg" x1="0%" y1="0%" x2="100%" y2="100%">
      <stop offset="0%" style="stop-color:#1a1a1a"/>
      <stop offset="100%" style="stop-color:#333333"/>
    </linearGradient>
    <filter id="blur" x="-50%" y="-50%" width="200%" height="200%">
      <feGaussianBlur in="SourceGraphic" stdDeviation="2"/>
    </filter>
  </defs>
  <rect width="100%" height="100%" fill="url(#bg)"/>
  <g transform="translate(400,250)">
    <path d="M-220,-40 C-180,-60 180,-60 220,-40 L240,20 C240,80 180,120 0,120 C-180,120 -240,80 -240,20 Z" fill="#006600"/>
    <path d="M-200,-30 C-160,-50 160,-50 200,-30 L220,20 C220,70 160,100 0,100 C-160,100 -220,70 -220,20 Z" fill="#00cc00"/>
    <circle cx="-120" cy="70" r="25" fill="#333" filter="url(#blur)"/>
    <circle cx="120" cy="70" r="25" fill="#333" filter="url(#blur)"/>
    <path d="M-180,-25 L180,-25 L200,10 L-200,10 Z" fill="#004d00"/>
  </g>
  <text x="400" y="450" text-anchor="middle" fill="white" font-family="Arial" font-size="24">Lamborghini Aventador SVJ</text>
</svg>