<?xml version="1.0" encoding="UTF-8" standalone="no"?>
<svg xmlns="http://www.w3.org/2000/svg" viewBox="0 0 800 500">
  <defs>
    <linearGradient id="bg" x1="0%" y1="0%" x2="100%" y2="100%">
      <stop offset="0%" style="stop-color:#1a1a1a"/>
      <stop offset="100%" style="stop-color:#4a4a4a"/>
    </linearGradient>
    <filter id="blur" x="-50%" y="-50%" width="200%" height="200%">
      <feGaussianBlur in="SourceGraphic" stdDeviation="3"/>
    </filter>
  </defs>
  <rect width="100%" height="100%" fill="url(#bg)"/>
  <g transform="translate(400,250)">
    <path d="M-200,-50 C-150,-80 150,-80 200,-50 L220,0 C220,50 150,100 0,100 C-150,100 -220,50 -220,0 Z" fill="#000033"/>
    <path d="M-180,-30 C-130,-60 130,-60 180,-30 L200,0 C200,40 130,80 0,80 C-130,80 -200,40 -200,0 Z" fill="#0000cc"/>
    <circle cx="-100" cy="60" r="30" fill="#333" filter="url(#blur)"/>
    <circle cx="100" cy="60" r="30" fill="#333" filter="url(#blur)"/>
    <path d="M-150,-20 L150,-20 L170,0 L-170,0 Z" fill="#000066"/>
  </g>
  <text x="400" y="450" text-anchor="middle" fill="white" font-family="Arial" font-size="24">Bugatti Chiron</text>
</svg>