<?xml version="1.0" encoding="UTF-8" standalone="no"?>
<svg xmlns="http://www.w3.org/2000/svg" viewBox="0 0 800 500">
  <defs>
    <linearGradient id="bg" x1="0%" y1="0%" x2="100%" y2="100%">
      <stop offset="0%" style="stop-color:#1a1a1a"/>
      <stop offset="100%" style="stop-color:#4d4d4d"/>
    </linearGradient>
    <filter id="blur" x="-50%" y="-50%" width="200%" height="200%">
      <feGaussianBlur in="SourceGraphic" stdDeviation="2"/>
    </filter>
  </defs>
  <rect width="100%" height="100%" fill="url(#bg)"/>
  <g transform="translate(400,250)">
    <path d="M-250,-25 C-210,-55 210,-55 250,-25 L270,45 C270,105 210,145 0,145 C-210,145 -270,105 -270,45 Z" fill="#cc5200"/>
    <path d="M-230,-15 C-190,-45 190,-45 230,-15 L250,45 C250,95 190,125 0,125 C-190,125 -250,95 -250,45 Z" fill="#ff6600"/>
    <circle cx="-150" cy="85" r="32" fill="#333" filter="url(#blur)"/>
    <circle cx="150" cy="85" r="32" fill="#333" filter="url(#blur)"/>
    <path d="M-210,-10 L210,-10 L230,35 L-230,35 Z" fill="#993d00"/>
  </g>
  <text x="400" y="450" text-anchor="middle" fill="white" font-family="Arial" font-size="24">Koenigsegg Jesko</text>
</svg>