<?xml version="1.0" encoding="UTF-8" standalone="no"?>
<svg xmlns="http://www.w3.org/2000/svg" viewBox="0 0 800 500">
  <defs>
    <linearGradient id="bg" x1="0%" y1="0%" x2="100%" y2="100%">
      <stop offset="0%" style="stop-color:#1a1a1a"/>
      <stop offset="100%" style="stop-color:#4d4d4d"/>
    </linearGradient>
    <filter id="blur" x="-50%" y="-50%" width="200%" height="200%">
      <feGaussianBlur in="SourceGraphic" stdDeviation="2"/>
    </filter>
  </defs>
  <rect width="100%" height="100%" fill="url(#bg)"/>
  <g transform="translate(400,250)">
    <path d="M-240,-30 C-200,-60 200,-60 240,-30 L260,40 C260,100 200,140 0,140 C-200,140 -260,100 -260,40 Z" fill="#cc3300"/>
    <path d="M-220,-20 C-180,-50 180,-50 220,-20 L240,40 C240,90 180,120 0,120 C-180,120 -240,90 -240,40 Z" fill="#ff6600"/>
    <circle cx="-140" cy="80" r="30" fill="#333" filter="url(#blur)"/>
    <circle cx="140" cy="80" r="30" fill="#333" filter="url(#blur)"/>
    <path d="M-200,-15 L200,-15 L220,30 L-220,30 Z" fill="#992600"/>
  </g>
  <text x="400" y="450" text-anchor="middle" fill="white" font-family="Arial" font-size="24">McLaren P1</text>
</svg>