<?xml version="1.0" encoding="UTF-8" standalone="no"?>
<svg xmlns="http://www.w3.org/2000/svg" viewBox="0 0 800 500">
  <defs>
    <linearGradient id="bg" x1="0%" y1="0%" x2="100%" y2="100%">
      <stop offset="0%" style="stop-color:#1a1a1a"/>
      <stop offset="100%" style="stop-color:#404040"/>
    </linearGradient>
    <filter id="blur" x="-50%" y="-50%" width="200%" height="200%">
      <feGaussianBlur in="SourceGraphic" stdDeviation="2"/>
    </filter>
  </defs>
  <rect width="100%" height="100%" fill="url(#bg)"/>
  <g transform="translate(400,250)">
    <path d="M-230,-35 C-190,-65 190,-65 230,-35 L250,30 C250,90 190,130 0,130 C-190,130 -250,90 -250,30 Z" fill="#808080"/>
    <path d="M-210,-25 C-170,-55 170,-55 210,-25 L230,30 C230,80 170,110 0,110 C-170,110 -230,80 -230,30 Z" fill="#a6a6a6"/>
    <circle cx="-130" cy="75" r="28" fill="#333" filter="url(#blur)"/>
    <circle cx="130" cy="75" r="28" fill="#333" filter="url(#blur)"/>
    <path d="M-190,-20 L190,-20 L210,20 L-210,20 Z" fill="#666666"/>
  </g>
  <text x="400" y="450" text-anchor="middle" fill="white" font-family="Arial" font-size="24">Pagani Huayra</text>
</svg>