<?xml version="1.0" encoding="UTF-8" standalone="no"?>
<svg xmlns="http://www.w3.org/2000/svg" viewBox="0 0 800 500">
  <defs>
    <linearGradient id="bg" x1="0%" y1="0%" x2="100%" y2="100%">
      <stop offset="0%" style="stop-color:#1a1a1a"/>
      <stop offset="100%" style="stop-color:#333333"/>
    </linearGradient>
    <filter id="blur" x="-50%" y="-50%" width="200%" height="200%">
      <feGaussianBlur in="SourceGraphic" stdDeviation="2"/>
    </filter>
  </defs>
  <rect width="100%" height="100%" fill="url(#bg)"/>
  <g transform="translate(400,250)">
    <path d="M-260,-45 C-220,-75 220,-75 260,-45 L280,25 C280,85 220,125 0,125 C-220,125 -280,85 -280,25 Z" fill="#004d00"/>
    <path d="M-240,-35 C-200,-65 200,-65 240,-35 L260,25 C260,75 200,105 0,105 C-200,105 -260,75 -260,25 Z" fill="#006600"/>
    <circle cx="-160" cy="65" r="30" fill="#333" filter="url(#blur)"/>
    <circle cx="160" cy="65" r="30" fill="#333" filter="url(#blur)"/>
    <path d="M-220,-30 L220,-30 L240,15 L-240,15 Z" fill="#003300"/>
  </g>
  <text x="400" y="450" text-anchor="middle" fill="white" font-family="Arial" font-size="24">Aston Martin Valkyrie</text>
</svg>